<svg xmlns="http://www.w3.org/2000/svg" width="65.907" height="28.922" viewBox="0 0 65.907 28.922">
  <g id="Group_102" data-name="Group 102" transform="translate(-470 -1119.82)">
    <g id="Group_100" data-name="Group 100" transform="translate(267.438 -500.124)">
      <path id="Path_69" data-name="Path 69" d="M217.338,1648.24a1.633,1.633,0,1,1,.477-1.157,1.567,1.567,0,0,1-.477,1.157m-2.141-2.147a1.361,1.361,0,0,0-.406.993,1.377,1.377,0,0,0,.4,1,1.393,1.393,0,0,0,1.98,0,1.377,1.377,0,0,0,.4-1,1.361,1.361,0,0,0-.406-.993,1.387,1.387,0,0,0-1.975,0m1.529,1.773a.776.776,0,0,1-.5.165.848.848,0,0,1-.626-.262.947.947,0,0,1-.26-.7,1.009,1.009,0,0,1,.234-.679.766.766,0,0,1,.611-.273.944.944,0,0,1,.428.1.648.648,0,0,1,.359.569h-.269a.487.487,0,0,0-.139-.289.468.468,0,0,0-.348-.122.485.485,0,0,0-.465.288.875.875,0,0,0-.093.4.852.852,0,0,0,.149.512.5.5,0,0,0,.433.208.474.474,0,0,0,.3-.1.515.515,0,0,0,.171-.281h.269a.726.726,0,0,1-.26.465" transform="translate(0 -0.044)" fill="#040405" stroke="#040405" stroke-miterlimit="10" stroke-width="0.2"/>
      <path id="Path_70" data-name="Path 70" d="M224.331,1646.51a.78.78,0,0,1-.07-.313.7.7,0,0,1,.212-.523.781.781,0,0,1,.569-.208.707.707,0,0,1,.529.193.636.636,0,0,1,.19.461.826.826,0,0,1-.2.548,1.848,1.848,0,0,1-.385.318l.593.711q.059-.178.082-.265c.015-.059.031-.14.047-.246h.38a2.412,2.412,0,0,1-.15.6c-.075.192-.113.269-.113.231l.578.7h-.515l-.305-.373a1.611,1.611,0,0,1-.332.289,1.146,1.146,0,0,1-.607.16.908.908,0,0,1-.736-.274.933.933,0,0,1-.23-.618.9.9,0,0,1,.224-.62,2.449,2.449,0,0,1,.512-.377,1.634,1.634,0,0,1-.277-.4m.96,1.825a.91.91,0,0,0,.272-.253l-.734-.9a2.275,2.275,0,0,0-.406.32.6.6,0,0,0-.146.406.469.469,0,0,0,.189.4.666.666,0,0,0,.4.14.762.762,0,0,0,.422-.114m-.031-1.849a.5.5,0,0,0,.129-.335.354.354,0,0,0-.1-.248.329.329,0,0,0-.256-.1.342.342,0,0,0-.388.348.492.492,0,0,0,.074.26,2.308,2.308,0,0,0,.248.321,1.715,1.715,0,0,0,.288-.241" transform="translate(-4.549 -0.049)" fill="#040405" stroke="#040405" stroke-miterlimit="10" stroke-width="0.2"/>
      <path id="Path_71" data-name="Path 71" d="M232.917,1645.726v-.269h1.372v.269h-.526v1.342h-.319v-1.342Zm2.106-.269.412,1.153.414-1.153h.458v1.61h-.3v-1.3l-.445,1.3h-.257l-.449-1.3v1.3h-.3v-1.61Z" transform="translate(-8.963 -0.044)" fill="#040405" stroke="#040405" stroke-miterlimit="10" stroke-width="0.2"/>
      <path id="Path_72" data-name="Path 72" d="M243.911,1645.457h.442v2.874h1.637v.389h-2.079Z" transform="translate(-14.329 -0.044)" fill="#040405" stroke="#040405" stroke-miterlimit="10" stroke-width="0.2"/>
      <path id="Path_73" data-name="Path 73" d="M249.14,1647.184v1.579a.681.681,0,0,0,.056.3.39.39,0,0,0,.387.214.548.548,0,0,0,.554-.373,1.525,1.525,0,0,0,.08-.549v-1.168h.4v2.378h-.378l0-.351a.8.8,0,0,1-.189.228.823.823,0,0,1-.545.186.7.7,0,0,1-.68-.339,1.025,1.025,0,0,1-.1-.486v-1.617Z" transform="translate(-16.682 -0.887)" fill="#040405" stroke="#040405" stroke-miterlimit="10" stroke-width="0.2"/>
      <path id="Path_74" data-name="Path 74" d="M255.106,1647.245a.936.936,0,0,1,.3.673h-.389a.714.714,0,0,0-.162-.365.512.512,0,0,0-.406-.146.562.562,0,0,0-.546.373,1.474,1.474,0,0,0-.106.6,1.123,1.123,0,0,0,.151.6.586.586,0,0,0,.869.092.827.827,0,0,0,.2-.415h.389a.94.94,0,0,1-1.015.91.909.909,0,0,1-.744-.341,1.3,1.3,0,0,1-.277-.851,1.436,1.436,0,0,1,.3-.975.984.984,0,0,1,.775-.349,1.036,1.036,0,0,1,.654.2" transform="translate(-18.948 -0.821)" fill="#040405" stroke="#040405" stroke-miterlimit="10" stroke-width="0.2"/>
      <path id="Path_75" data-name="Path 75" d="M259.3,1648.068a.22.22,0,0,0,.184-.115.361.361,0,0,0,.027-.154.328.328,0,0,0-.145-.3.783.783,0,0,0-.415-.092.529.529,0,0,0-.444.169.563.563,0,0,0-.095.279h-.373a.687.687,0,0,1,.285-.613,1.17,1.17,0,0,1,.635-.173,1.293,1.293,0,0,1,.681.16.542.542,0,0,1,.26.5v1.37a.174.174,0,0,0,.026.1.123.123,0,0,0,.107.037l.06,0c.022,0,.046-.006.071-.01v.3a1.21,1.21,0,0,1-.142.033.971.971,0,0,1-.133.007.33.33,0,0,1-.3-.147.573.573,0,0,1-.069-.22,1.014,1.014,0,0,1-.351.277,1.087,1.087,0,0,1-.5.117.753.753,0,0,1-.542-.2.668.668,0,0,1-.209-.5.648.648,0,0,1,.206-.512.985.985,0,0,1,.542-.224Zm-.842,1.08a.469.469,0,0,0,.3.1.9.9,0,0,0,.408-.1.547.547,0,0,0,.333-.529v-.322a.686.686,0,0,1-.188.078,1.508,1.508,0,0,1-.227.044l-.242.032a.95.95,0,0,0-.327.09.355.355,0,0,0-.185.333.327.327,0,0,0,.127.272" transform="translate(-21.165 -0.832)" fill="#040405" stroke="#040405" stroke-miterlimit="10" stroke-width="0.2"/>
      <path id="Path_76" data-name="Path 76" d="M263.171,1648.757a.573.573,0,0,0,.1.307.65.65,0,0,0,.535.193.8.8,0,0,0,.4-.1.319.319,0,0,0,.173-.3.255.255,0,0,0-.138-.233,1.645,1.645,0,0,0-.348-.113l-.323-.08a1.6,1.6,0,0,1-.456-.169.5.5,0,0,1-.262-.448.682.682,0,0,1,.246-.546.989.989,0,0,1,.663-.209.925.925,0,0,1,.785.316.676.676,0,0,1,.146.43h-.377a.453.453,0,0,0-.1-.245.635.635,0,0,0-.489-.157.6.6,0,0,0-.351.086.27.27,0,0,0-.119.228.279.279,0,0,0,.157.248.936.936,0,0,0,.267.1l.27.064a2.121,2.121,0,0,1,.588.2.536.536,0,0,1,.233.482.732.732,0,0,1-.244.549,1.05,1.05,0,0,1-.743.231,1,1,0,0,1-.761-.241.9.9,0,0,1-.239-.6Z" transform="translate(-23.543 -0.828)" fill="#040405" stroke="#040405" stroke-miterlimit="10" stroke-width="0.2"/>
      <path id="Path_77" data-name="Path 77" d="M267.482,1645.57a.611.611,0,0,1,.54-.2l.078,0,.091.007v.365l-.091-.006h-.053q-.184,0-.22.095a1.844,1.844,0,0,0-.036.481h.4v.316h-.4v2.051h-.4v-2.051h-.331v-.316h.331v-.373a.71.71,0,0,1,.087-.364" transform="translate(-25.631)" fill="#040405" stroke="#040405" stroke-miterlimit="10" stroke-width="0.2"/>
      <path id="Path_78" data-name="Path 78" d="M269.984,1645.457h.406v.454h-.406Zm0,.9h.406v2.367h-.406Z" transform="translate(-27.055 -0.044)" fill="#040405" stroke="#040405" stroke-miterlimit="10" stroke-width="0.2"/>
      <rect id="Rectangle_45" data-name="Rectangle 45" width="0.4" height="3.262" transform="translate(243.95 1645.413)" fill="#040405" stroke="#040405" stroke-miterlimit="10" stroke-width="0.2"/>
      <path id="Path_79" data-name="Path 79" d="M273.932,1647.133h.4v.337a1.354,1.354,0,0,1,.257-.255.774.774,0,0,1,.448-.135.7.7,0,0,1,.458.14.732.732,0,0,1,.178.235.863.863,0,0,1,.313-.284.872.872,0,0,1,.4-.092.661.661,0,0,1,.653.346,1.137,1.137,0,0,1,.093.5v1.583h-.415v-1.652a.385.385,0,0,0-.119-.327.472.472,0,0,0-.29-.089.576.576,0,0,0-.405.158.693.693,0,0,0-.17.526v1.384h-.406v-1.552a.8.8,0,0,0-.058-.353.352.352,0,0,0-.339-.166.587.587,0,0,0-.412.175.859.859,0,0,0-.185.635v1.261h-.4Z" transform="translate(-28.982 -0.837)" fill="#040405" stroke="#040405" stroke-miterlimit="10" stroke-width="0.2"/>
      <path id="Path_80" data-name="Path 80" d="M283.906,1645.457h.442v2.874h1.637v.389h-2.079Z" transform="translate(-33.851 -0.044)" fill="#040405" stroke="#040405" stroke-miterlimit="10" stroke-width="0.2"/>
      <path id="Path_81" data-name="Path 81" d="M288.592,1645.886h.4v.664h.38v.327H289v1.552a.167.167,0,0,0,.084.166.355.355,0,0,0,.155.025h.062c.022,0,.048,0,.078-.008v.317a.867.867,0,0,1-.143.029,1.326,1.326,0,0,1-.161.009.434.434,0,0,1-.38-.144.635.635,0,0,1-.1-.372v-1.574h-.322v-.327h.322Z" transform="translate(-35.981 -0.254)" fill="#040405" stroke="#040405" stroke-miterlimit="10" stroke-width="0.2"/>
      <path id="Path_82" data-name="Path 82" d="M292.357,1646.4a1.079,1.079,0,0,1,.242.233v-1.2h.384v3.274h-.359v-.331a.865.865,0,0,1-.331.317.934.934,0,0,1-.435.1.882.882,0,0,1-.686-.334,1.308,1.308,0,0,1-.29-.89,1.54,1.54,0,0,1,.264-.9.866.866,0,0,1,.757-.381.836.836,0,0,1,.455.116m-.892,1.783a.562.562,0,0,0,.517.258.543.543,0,0,0,.454-.239,1.13,1.13,0,0,0,.178-.685,1.015,1.015,0,0,0-.183-.667.571.571,0,0,0-.454-.217.6.6,0,0,0-.487.231,1.065,1.065,0,0,0-.186.679,1.179,1.179,0,0,0,.161.639" transform="translate(-37.256 -0.034)" fill="#040405" stroke="#040405" stroke-miterlimit="10" stroke-width="0.2"/>
      <rect id="Rectangle_46" data-name="Rectangle 46" width="0.464" height="0.484" transform="translate(256.42 1648.191)" fill="#040405" stroke="#040405" stroke-miterlimit="10" stroke-width="0.2"/>
    </g>
    <g id="Group_101" data-name="Group 101" transform="translate(165.533 -504.183)">
      <path id="Path_83" data-name="Path 83" d="M309.049,1646.846v0Z" transform="translate(-0.883 -4.402)" fill="#fff"/>
      <path id="Path_84" data-name="Path 84" d="M309,1647.16h0Z" transform="translate(-0.87 -4.463)" fill="#fff"/>
      <path id="Path_85" data-name="Path 85" d="M305.109,1624.774a.164.164,0,0,0-.115.047.161.161,0,0,0-.047.114l0,.418a.159.159,0,0,0,.115.154l.057.015a.877.877,0,0,1,.472.257.834.834,0,0,1,.2.475l.04,11.315,0,1.686-.01,2.743v.033a1.041,1.041,0,0,1-.119.517.833.833,0,0,1-.548.372.163.163,0,0,0-.145.16l0,.517a.163.163,0,0,0,.047.114.165.165,0,0,0,.115.047l6.667-.017a.162.162,0,0,0,.16-.148l.457-5.237a.162.162,0,0,0-.161-.175l-.84,0a.161.161,0,0,0-.159.141l-.221,1.745c0,.006-.126.887-.165,1.093a2.284,2.284,0,0,1-.147.438l-.009.021a1.375,1.375,0,0,1-.421.528,1.637,1.637,0,0,1-.882.36l-1.191-.013c0-.152-.01-6.139-.01-6.139s-.042-10.132-.043-10.157a.836.836,0,0,1,.245-.463,1.072,1.072,0,0,1,.471-.211.16.16,0,0,0,.134-.158v-.431a.161.161,0,0,0-.161-.161Zm.605.9a1.118,1.118,0,0,0-.6-.321l0-.418H308.9v.431a1.223,1.223,0,0,0-.555.254.99.99,0,0,0-.295.568s.041,10.052.042,10.17.01,6.216.01,6.216,0,.054.026.067a.165.165,0,0,0,.082.015l1.248.013a1.785,1.785,0,0,0,.979-.4,1.468,1.468,0,0,0,.471-.6,2.437,2.437,0,0,0,.161-.48c.042-.212.168-1.1.168-1.1l.22-1.745h.84l-.456,5.238-6.667.018,0-.517a.987.987,0,0,0,.664-.441,1.248,1.248,0,0,0,.147-.641s.01-2.515.011-2.744-.006-1.687-.006-1.687l-.04-11.318a.983.983,0,0,0-.235-.578" transform="translate(-0.093 -0.149)" fill="#fff"/>
      <path id="Path_86" data-name="Path 86" d="M324.8,1624.8a2.512,2.512,0,0,0-1.066.953,1.935,1.935,0,0,0-.223.758l.055,9.1a2.592,2.592,0,0,0,.173.928,2.333,2.333,0,0,0,.639.813,2.531,2.531,0,0,0,1.066.451,3.851,3.851,0,0,0,.814.066h.046a3.272,3.272,0,0,0,1.055-.148,3.4,3.4,0,0,0,1.2-.75,2.751,2.751,0,0,0,.683-1.037,2.906,2.906,0,0,0,.139-.954v-2.619a.161.161,0,0,0-.161-.161h-.97a.161.161,0,0,0-.161.161l.006,2.687a1.926,1.926,0,0,1-.067.481,1.218,1.218,0,0,1-.246.446,1.367,1.367,0,0,1-.458.316,1.7,1.7,0,0,1-.509.094,1.069,1.069,0,0,1-.357-.049,1.174,1.174,0,0,1-.394-.245,1.436,1.436,0,0,1-.3-.431,1.273,1.273,0,0,1-.086-.372l-.019-8.367a1.224,1.224,0,0,1,.417-.984,1.171,1.171,0,0,1,1.384-.028,1.894,1.894,0,0,1,.606,1.3v1.364a.161.161,0,0,0,.161.161h.961a.159.159,0,0,0,.114-.048.155.155,0,0,0,.047-.114l-.008-3.688a.16.16,0,0,0-.161-.16H328.2a.161.161,0,0,0-.161.161v.186a4.884,4.884,0,0,0-.589-.279,4.491,4.491,0,0,0-1.149-.282,3.171,3.171,0,0,0-1.506.287m-1.129,1.718a1.77,1.77,0,0,1,.2-.689,2.377,2.377,0,0,1,.995-.884,3.038,3.038,0,0,1,1.42-.272,4.352,4.352,0,0,1,1.105.272,4.982,4.982,0,0,1,.621.3.19.19,0,0,0,.145.017c.039-.024.042-.094.042-.094v-.278h.986l.008,3.688h-.961V1627.2a2.043,2.043,0,0,0-.672-1.428,1.333,1.333,0,0,0-1.582.034,1.38,1.38,0,0,0-.476,1.108c0,.451.02,8.374.02,8.374a1.4,1.4,0,0,0,.1.425,1.624,1.624,0,0,0,.333.487,1.352,1.352,0,0,0,.456.282,1.188,1.188,0,0,0,.408.057,1.866,1.866,0,0,0,.564-.1,1.548,1.548,0,0,0,.516-.354,1.385,1.385,0,0,0,.285-.513,2.09,2.09,0,0,0,.074-.527l-.007-2.686h.97v2.626a2.772,2.772,0,0,1-.131.9,2.594,2.594,0,0,1-.639.97,3.345,3.345,0,0,1-1.145.715,3.294,3.294,0,0,1-1.02.138,3.7,3.7,0,0,1-.814-.062,2.386,2.386,0,0,1-.993-.416,2.156,2.156,0,0,1-.594-.751,2.455,2.455,0,0,1-.161-.867Z" transform="translate(-3.669 -0.096)" fill="#fff"/>
      <path id="Path_87" data-name="Path 87" d="M324.542,1624.354l-.006,0,0,0,0,0a2.883,2.883,0,0,0-1.237,1.119,2.3,2.3,0,0,0-.267.924v.016l.055,9.1v.019a3.023,3.023,0,0,0,.2,1.054,2.709,2.709,0,0,0,.748.962,2.927,2.927,0,0,0,1.243.536,4.186,4.186,0,0,0,.895.073h.035a3.677,3.677,0,0,0,1.179-.167,3.778,3.778,0,0,0,1.343-.832,3.128,3.128,0,0,0,.787-1.2,3.314,3.314,0,0,0,.161-1.021v-3.062a.161.161,0,0,0-.161-.161H327.77a.163.163,0,0,0-.161.161l.008,3.073a1.58,1.58,0,0,1-.052.371.856.856,0,0,1-.153.286,1.006,1.006,0,0,1-.316.224,1.331,1.331,0,0,1-.379.069h-.02a.686.686,0,0,1-.211-.031.8.8,0,0,1-.246-.155,1.068,1.068,0,0,1-.206-.3.838.838,0,0,1-.057-.24v0c0-.116-.02-8.351-.02-8.351a.841.841,0,0,1,.277-.685.8.8,0,0,1,.911-.015,1.51,1.51,0,0,1,.448,1.007v1.736a.161.161,0,0,0,.161.161h1.734a.162.162,0,0,0,.114-.047.165.165,0,0,0,.047-.115l-.01-4.46a.162.162,0,0,0-.161-.161H327.72a.159.159,0,0,0-.153.124l-.069-.03a4.879,4.879,0,0,0-1.253-.307,3.593,3.593,0,0,0-1.7.321m1.687-.161a4.7,4.7,0,0,1,1.209.3c.1.04.2.081.281.122v-.205h1.758l.01,4.46h-1.734v-1.745a1.658,1.658,0,0,0-.514-1.128.955.955,0,0,0-1.108.021.994.994,0,0,0-.336.81s.02,8.336.02,8.36a1.039,1.039,0,0,0,.069.292,1.226,1.226,0,0,0,.244.355.944.944,0,0,0,.308.192.837.837,0,0,0,.266.039h.017a1.474,1.474,0,0,0,.433-.079,1.169,1.169,0,0,0,.375-.262,1.02,1.02,0,0,0,.192-.353,1.688,1.688,0,0,0,.058-.417l-.007-3.073h1.742v3.006c0,.011,0,.027,0,.056a3.171,3.171,0,0,1-.152.97,2.964,2.964,0,0,1-.744,1.13,3.615,3.615,0,0,1-1.284.8,3.535,3.535,0,0,1-1.129.158h-.04a4.044,4.044,0,0,1-.861-.07,2.751,2.751,0,0,1-1.169-.5,2.552,2.552,0,0,1-.7-.9,2.869,2.869,0,0,1-.19-1.011l-.055-9.1v-.009a2.149,2.149,0,0,1,.249-.854,2.733,2.733,0,0,1,1.184-1.059l-.018.008a3.411,3.411,0,0,1,1.626-.31" transform="translate(-3.577 -0.004)" fill="#fff"/>
      <path id="Path_88" data-name="Path 88" d="M335.261,1627.206l-.3,0a.161.161,0,0,0-.158.136l-.693,4.522a.165.165,0,0,0,.037.13.162.162,0,0,0,.123.057h1.75a.161.161,0,0,0,.123-.058.158.158,0,0,0,.036-.13l-.755-4.526a.16.16,0,0,0-.16-.134m-.3.163.3,0,.755,4.526h-1.75Z" transform="translate(-5.711 -0.617)" fill="#fff"/>
      <path id="Path_89" data-name="Path 89" d="M332.787,1624.761a.162.162,0,0,0-.161.16l0,.443a.16.16,0,0,0,.132.159,1.212,1.212,0,0,1,.308.111.649.649,0,0,1,.214.2.84.84,0,0,1,.119.321,1.2,1.2,0,0,1-.011.328c0,.007-1.313,8.546-1.313,8.546a2.864,2.864,0,0,1-.149.561,1.953,1.953,0,0,1-.2.3,1.9,1.9,0,0,1-.239.229.162.162,0,0,0-.061.128v.391a.16.16,0,0,0,.059.124.162.162,0,0,0,.133.034l2.131-.425a.161.161,0,0,0,.13-.158v-.44a.16.16,0,0,0-.05-.117.166.166,0,0,0-.119-.044.769.769,0,0,1-.2-.022.578.578,0,0,1-.213-.114.428.428,0,0,1-.094-.17.393.393,0,0,1-.01-.094.517.517,0,0,1,0-.073s.358-2.278.417-2.657h2.013l.354,2.023a1.639,1.639,0,0,1,.019.233c0,.021,0,.041,0,.061a.589.589,0,0,1-.061.216.743.743,0,0,1-.175.191.842.842,0,0,1-.207.109.162.162,0,0,0-.113.153v.438a.161.161,0,0,0,.178.16l2.972-.32a.16.16,0,0,0,.144-.16v-.533a.18.18,0,0,0-.115-.154l-.149-.061a.644.644,0,0,1-.307-.309,1.363,1.363,0,0,1-.075-.227l-1.23-7.551s-.058-.341-.058-.341l-.018-.23a.6.6,0,0,1,.058-.277.642.642,0,0,1,.164-.189.779.779,0,0,1,.274-.136.985.985,0,0,1,.264-.024.161.161,0,0,0,.12-.042.163.163,0,0,0,.051-.118v-.466a.161.161,0,0,0-.161-.161Zm0,.161h4.769v.466a1.155,1.155,0,0,0-.314.027.972.972,0,0,0-.34.171.777.777,0,0,0-.207.247.762.762,0,0,0-.072.34,1.69,1.69,0,0,0,.019.253c.015.109.059.345.059.345l1.232,7.56a1.576,1.576,0,0,0,.086.259.942.942,0,0,0,.149.218.916.916,0,0,0,.23.167,1.172,1.172,0,0,0,.178.073v.533l-2.973.321v-.438a1,1,0,0,0,.255-.132.914.914,0,0,0,.221-.245.737.737,0,0,0,.081-.283,1.589,1.589,0,0,0-.02-.332l-.362-2.068a.1.1,0,0,0-.045-.065.149.149,0,0,0-.089-.023h-2.081a.125.125,0,0,0-.067.017.089.089,0,0,0-.03.061l-.426,2.711a.639.639,0,0,0,.007.233.589.589,0,0,0,.14.25.758.758,0,0,0,.283.152.922.922,0,0,0,.246.027v.44l-2.13.425v-.391a2.12,2.12,0,0,0,.261-.253,2.039,2.039,0,0,0,.216-.321,3.231,3.231,0,0,0,.167-.617l1.312-8.539a1.326,1.326,0,0,0,.013-.379,1,1,0,0,0-.145-.389.8.8,0,0,0-.271-.252,1.367,1.367,0,0,0-.355-.128Z" transform="translate(-5.195 -0.146)" fill="#fff"/>
      <path id="Path_90" data-name="Path 90" d="M337.464,1624.282h-5.153a.161.161,0,0,0-.161.159l-.009,1.148a.16.16,0,0,0,.13.159l.317.061a.829.829,0,0,1,.195.069.3.3,0,0,1,.076.069.485.485,0,0,1,.061.158l0,.072-.011.135,0,.019s-1.312,8.542-1.312,8.542a3.145,3.145,0,0,1-.109.442,1.569,1.569,0,0,1-.148.224,1.669,1.669,0,0,1-.186.179l-.146.115a.161.161,0,0,0-.061.127v1.05a.16.16,0,0,0,.059.124.162.162,0,0,0,.133.034l2.9-.578a.162.162,0,0,0,.13-.157v-1.158a.161.161,0,0,0-.049-.115.158.158,0,0,0-.117-.044l-.4.013-.086-.009a.184.184,0,0,1-.029-.015v0l.241-1.53s.094-.6.125-.8h1.357l.3,1.7.014.166v.036a.242.242,0,0,1-.014.052.382.382,0,0,1-.065.069.5.5,0,0,1-.1.055l-.262.088a.16.16,0,0,0-.109.15l0,.278v.87a.161.161,0,0,0,.178.161l3.7-.412c.081-.009.086-.076.086-.158l.006-1.146a.162.162,0,0,0-.1-.15l-.175-.1-.1-.04-.08-.053-.052-.073-.048-.145-1.228-7.535s-.05-.292-.056-.329c0-.014-.014-.168-.015-.183a.226.226,0,0,1,.021-.1l.065-.064a.444.444,0,0,1,.118-.056.565.565,0,0,1,.146-.012l.409.024a.163.163,0,0,0,.119-.044.16.16,0,0,0,.051-.117l0-.409v-.853a.161.161,0,0,0-.161-.161Zm.387.161v.853l0,.408-.409-.023a.718.718,0,0,0-.195.017.57.57,0,0,0-.183.089.424.424,0,0,0-.1.11.378.378,0,0,0-.039.185l.015.2s.057.329.058.336,1.225,7.514,1.23,7.546a1.06,1.06,0,0,0,.058.176.528.528,0,0,0,.086.12.579.579,0,0,0,.121.084l.111.044.274.11v1.14l-3.746.4v-.868l0-.279.263-.089a.632.632,0,0,0,.147-.077.557.557,0,0,0,.111-.12.347.347,0,0,0,.033-.121.423.423,0,0,0,0-.046,1.251,1.251,0,0,0-.016-.193s-.258-1.471-.322-1.837h-1.63c-.1.671-.387,2.463-.388,2.468a.234.234,0,0,0,0,.036.171.171,0,0,0,0,.041.259.259,0,0,0,.034.061.394.394,0,0,0,.112.058.511.511,0,0,0,.132.015l.4-.015v1.158l-2.9.577v-1.05l.147-.116a1.706,1.706,0,0,0,.207-.2,1.641,1.641,0,0,0,.17-.258,2.994,2.994,0,0,0,.124-.488l1.312-8.539,0-.017a1,1,0,0,0,.014-.165.733.733,0,0,0-.006-.092.614.614,0,0,0-.085-.225.421.421,0,0,0-.133-.124.98.98,0,0,0-.241-.086l-.317-.061.009-1.147h5.54Z" transform="translate(-5.103 -0.054)" fill="#fff"/>
      <path id="Path_91" data-name="Path 91" d="M342.37,1624.667a2.177,2.177,0,0,0-.645.436,1.677,1.677,0,0,0-.511,1.049v2.233a2.631,2.631,0,0,0,.057.513,2.134,2.134,0,0,0,.2.521,2.27,2.27,0,0,0,.364.467,2.443,2.443,0,0,0,.313.259l1.667,1.057a3.517,3.517,0,0,1,.3.209.9.9,0,0,1,.161.167l.007.01a.733.733,0,0,1,.109.211,1.662,1.662,0,0,1,.048.349v1a2.092,2.092,0,0,1-.062.514.732.732,0,0,1-.142.265,1.131,1.131,0,0,1-.4.319,1.174,1.174,0,0,1-.438.081h-.031a1.012,1.012,0,0,1-.33-.037,1.194,1.194,0,0,1-.472-.311,1.113,1.113,0,0,1-.226-.406,1.351,1.351,0,0,1-.058-.335l-.008-1.25a.161.161,0,0,0-.161-.16h-.735a.161.161,0,0,0-.161.161l-.007,3.452a.157.157,0,0,0,.047.115.161.161,0,0,0,.114.048h.76a.163.163,0,0,0,.161-.161s0-.3-.007-.437a6.051,6.051,0,0,0,.781.413,3.375,3.375,0,0,0,1.15.194,2.264,2.264,0,0,0,1.873-.827,2.046,2.046,0,0,0,.456-1.129v-1.892a2.572,2.572,0,0,0-.057-.5,2.356,2.356,0,0,0-.2-.542,2.051,2.051,0,0,0-.332-.454,3.082,3.082,0,0,0-.418-.347l-1.637-1.018a2.559,2.559,0,0,1-.438-.342,1.426,1.426,0,0,1-.165-.292,1.189,1.189,0,0,1-.057-.3v-1.292a.923.923,0,0,1,.081-.339.96.96,0,0,1,.212-.272,1.04,1.04,0,0,1,.664-.261,1.268,1.268,0,0,1,.937.475,1.644,1.644,0,0,1,.22.389,1.972,1.972,0,0,1,.082.632v.547a.161.161,0,0,0,.161.161h.784a.161.161,0,0,0,.161-.161v-2.975a.162.162,0,0,0-.161-.162h-.813a.162.162,0,0,0-.161.162v.353a4.636,4.636,0,0,0-.645-.413,3.468,3.468,0,0,0-.718-.253,4.244,4.244,0,0,0-.706-.08,2.915,2.915,0,0,0-.957.187m-1,7.325h.735l.008,1.251a1.476,1.476,0,0,0,.065.38,1.291,1.291,0,0,0,.262.47,1.347,1.347,0,0,0,.542.353,1.271,1.271,0,0,0,.408.047,1.355,1.355,0,0,0,.5-.095,1.306,1.306,0,0,0,.462-.362.9.9,0,0,0,.175-.326,2.255,2.255,0,0,0,.069-.558v-1.008a1.856,1.856,0,0,0-.053-.388.917.917,0,0,0-.14-.269,1.012,1.012,0,0,0-.191-.2,3.528,3.528,0,0,0-.313-.219l-1.664-1.054a2.425,2.425,0,0,1-.291-.242,2.066,2.066,0,0,1-.335-.429,2,2,0,0,1-.184-.479,2.48,2.48,0,0,1-.053-.479v-2.222a1.522,1.522,0,0,1,.456-.939,2.087,2.087,0,0,1,.6-.407,2.728,2.728,0,0,1,.894-.173,3.854,3.854,0,0,1,.676.075,3.4,3.4,0,0,1,.684.241,5.565,5.565,0,0,1,.751.5s.066.036.1.02.025-.081.025-.081v-.522h.813v2.975h-.784v-.536a2.125,2.125,0,0,0-.09-.69,1.672,1.672,0,0,0-.239-.432,1.416,1.416,0,0,0-1.07-.546,1.2,1.2,0,0,0-.774.3,1.085,1.085,0,0,0-.247.321,1.054,1.054,0,0,0-.1.407v1.3a1.274,1.274,0,0,0,.067.351,1.449,1.449,0,0,0,.185.331,2.816,2.816,0,0,0,.486.387l1.632,1.015a2.909,2.909,0,0,1,.393.326,1.882,1.882,0,0,1,.3.416,2.154,2.154,0,0,1,.189.5,2.5,2.5,0,0,1,.053.465v1.883a1.9,1.9,0,0,1-.415,1.032,2.115,2.115,0,0,1-1.753.773,3.209,3.209,0,0,1-1.091-.182,6.84,6.84,0,0,1-.81-.434s-.082-.065-.138-.044-.053.111-.053.111l.009.541h-.76Z" transform="translate(-7.08 -0.092)" fill="#fff"/>
      <path id="Path_92" data-name="Path 92" d="M342.135,1624.216a2.575,2.575,0,0,0-.759.5,2.069,2.069,0,0,0-.64,1.311v2.262a3,3,0,0,0,.066.6,2.586,2.586,0,0,0,.237.622,2.651,2.651,0,0,0,.433.557,2.741,2.741,0,0,0,.366.3l.013.009,1.666,1.057.262.182.084.086.008.01a.381.381,0,0,1,.055.094,1.252,1.252,0,0,1,.034.256v1a1.66,1.66,0,0,1-.048.4.341.341,0,0,1-.063.117.8.8,0,0,1-.26.215.775.775,0,0,1-.283.051h-.041a.705.705,0,0,1-.207-.02.831.831,0,0,1-.306-.207.744.744,0,0,1-.139-.256.925.925,0,0,1-.04-.23l-.011-1.627a.162.162,0,0,0-.161-.161h-1.5a.161.161,0,0,0-.161.161l-.008,4.225a.163.163,0,0,0,.047.114.161.161,0,0,0,.115.048h1.539a.159.159,0,0,0,.161-.161s0-.088,0-.161c.092.044.174.082.244.11a3.716,3.716,0,0,0,1.289.22,2.651,2.651,0,0,0,2.163-.958,2.428,2.428,0,0,0,.552-1.364v-1.913a2.951,2.951,0,0,0-.066-.584,2.691,2.691,0,0,0-.239-.638,2.465,2.465,0,0,0-.4-.545,3.516,3.516,0,0,0-.476-.395l-.015-.01L344,1628.486a3.06,3.06,0,0,1-.337-.253.9.9,0,0,1-.106-.18.738.738,0,0,1-.036-.189v-1.278a.541.541,0,0,1,.046-.178.616.616,0,0,1,.124-.15.666.666,0,0,1,.4-.158.876.876,0,0,1,.618.307,1.379,1.379,0,0,1,.17.289,1.577,1.577,0,0,1,.065.493v.955a.161.161,0,0,0,.161.161h1.557a.161.161,0,0,0,.161-.161v-3.748a.161.161,0,0,0-.161-.161h-1.586a.16.16,0,0,0-.161.161v.027c-.032-.018-.066-.037-.1-.05a3.859,3.859,0,0,0-.8-.281,4.641,4.641,0,0,0-.782-.088,3.333,3.333,0,0,0-1.1.213m1.1-.052a4.3,4.3,0,0,1,.75.084,3.606,3.606,0,0,1,.768.269,2.876,2.876,0,0,1,.324.186v-.309h1.586v3.748h-1.557v-.945a1.761,1.761,0,0,0-.072-.552,1.519,1.519,0,0,0-.191-.33,1.032,1.032,0,0,0-.752-.377.828.828,0,0,0-.509.2.77.77,0,0,0-.162.2.7.7,0,0,0-.06.245v1.288a.889.889,0,0,0,.046.233,1.159,1.159,0,0,0,.132.229,2.877,2.877,0,0,0,.378.287l1.632,1.015.013.008a3.308,3.308,0,0,1,.451.375,2.286,2.286,0,0,1,.371.507,2.579,2.579,0,0,1,.224.6,2.8,2.8,0,0,1,.063.549v1.9a2.245,2.245,0,0,1-.513,1.268,2.49,2.49,0,0,1-2.042.9,3.544,3.544,0,0,1-1.231-.21,4.439,4.439,0,0,1-.467-.228s.007.429.007.429h-1.539l.008-4.226h1.5l.01,1.632a1.167,1.167,0,0,0,.048.273.9.9,0,0,0,.175.318.968.968,0,0,0,.376.25.806.806,0,0,0,.257.028h.038a.765.765,0,0,0,.667-.321.523.523,0,0,0,.1-.179,1.841,1.841,0,0,0,.055-.448v-1a1.482,1.482,0,0,0-.04-.295.537.537,0,0,0-.078-.142l-.008-.01a.667.667,0,0,0-.115-.119,3.143,3.143,0,0,0-.278-.193l-1.663-1.056-.011-.007a2.641,2.641,0,0,1-.344-.284,2.52,2.52,0,0,1-.4-.52,2.412,2.412,0,0,1-.221-.581,2.9,2.9,0,0,1-.062-.561v-2.25a1.881,1.881,0,0,1,.586-1.2,2.419,2.419,0,0,1,.711-.476,3.09,3.09,0,0,1,1.043-.2" transform="translate(-6.987)" fill="#fff"/>
      <path id="Path_93" data-name="Path 93" d="M349.036,1624.763a.16.16,0,0,0-.161.161l0,.459a.162.162,0,0,0,.132.158,1.148,1.148,0,0,1,.249.079.977.977,0,0,1,.254.177.711.711,0,0,1,.146.223,1.071,1.071,0,0,1,.05.278l.02,7.758a1.245,1.245,0,0,1-.041.263.822.822,0,0,1-.129.252.9.9,0,0,1-.251.195,1.031,1.031,0,0,1-.263.086.161.161,0,0,0-.136.159v.487a.16.16,0,0,0,.145.159c.011,0,1.148.112,1.743.15.22.015.37.031,1.2.122l.455.05a.16.16,0,0,0,.178-.16v-.459a.162.162,0,0,0-.14-.16.892.892,0,0,1-.2-.058,1.173,1.173,0,0,1-.287-.182.944.944,0,0,1-.167-.246.809.809,0,0,1-.054-.241s-.01-3.222-.01-3.667h.869a.565.565,0,0,1,.216.048.954.954,0,0,1,.239.184.841.841,0,0,1,.141.232,1.555,1.555,0,0,1,.082.261.162.162,0,0,0,.158.128h.7a.16.16,0,0,0,.161-.161v-2.486a.161.161,0,0,0-.161-.161h-.718a.162.162,0,0,0-.161.14.88.88,0,0,1-.063.22,1.078,1.078,0,0,1-.164.254.737.737,0,0,1-.2.157.687.687,0,0,1-.206.05h-.9c0-.124-.006-3.569-.006-3.671h1.122a1.466,1.466,0,0,1,.382.067,1.077,1.077,0,0,1,.32.189,1.1,1.1,0,0,1,.241.32.935.935,0,0,1,.076.309v.691a.161.161,0,0,0,.161.161h.85a.161.161,0,0,0,.162-.161v-2.654a.161.161,0,0,0-.162-.161Zm0,.161h5.872v2.654h-.85v-.7a1.081,1.081,0,0,0-.09-.368,1.155,1.155,0,0,0-.656-.6,1.653,1.653,0,0,0-.434-.074h-1.173a.153.153,0,0,0-.09.022c-.027.025-.019.086-.019.086l.006,3.789s-.006.056.02.078a.185.185,0,0,0,.091.018h.961a.859.859,0,0,0,.262-.064.887.887,0,0,0,.252-.193,1.273,1.273,0,0,0,.195-.3,1.132,1.132,0,0,0,.076-.264h.718v2.486h-.7a1.8,1.8,0,0,0-.09-.291.987.987,0,0,0-.178-.284,1.136,1.136,0,0,0-.285-.217.728.728,0,0,0-.283-.062l-.932,0a.082.082,0,0,0-.073.022.109.109,0,0,0-.025.086l.011,3.722a.941.941,0,0,0,.065.3,1.1,1.1,0,0,0,.2.3,1.288,1.288,0,0,0,.339.216,1.029,1.029,0,0,0,.245.07v.459c-1.255-.138-1.405-.156-1.665-.173-.6-.038-1.737-.148-1.737-.148v-.487a1.2,1.2,0,0,0,.31-.1,1.069,1.069,0,0,0,.3-.235.939.939,0,0,0,.161-.312,1.384,1.384,0,0,0,.048-.308l-.02-7.763a1.217,1.217,0,0,0-.061-.327.848.848,0,0,0-.182-.28,1.109,1.109,0,0,0-.3-.211,1.326,1.326,0,0,0-.287-.093Z" transform="translate(-8.558 -0.146)" fill="#fff"/>
      <path id="Path_94" data-name="Path 94" d="M354.816,1624.285h-6.26a.16.16,0,0,0-.161.161l0,1.167a.162.162,0,0,0,.131.157l.316.06a.785.785,0,0,1,.157.05.571.571,0,0,1,.136.093.326.326,0,0,1,.061.086.617.617,0,0,1,.03.161l.019,7.735a.9.9,0,0,1-.027.165.454.454,0,0,1-.055.112.524.524,0,0,1-.126.1.722.722,0,0,1-.157.051l-.322.055a.161.161,0,0,0-.133.157l0,.327v.837a.162.162,0,0,0,.145.16l.35.034c.2.019,1.2.115,1.755.151.212.014.361.031,1.184.121l.884.1a.163.163,0,0,0,.179-.161v-1.224a.162.162,0,0,0-.138-.159l-.333-.049-.1-.031a.868.868,0,0,1-.172-.1.6.6,0,0,1-.079-.115.442.442,0,0,1-.025-.114h0c0-.066-.008-2.6-.01-3.261l.483,0a.244.244,0,0,1,.057.015.821.821,0,0,1,.126.108.6.6,0,0,1,.056.1l.06.19.065.308a.162.162,0,0,0,.157.128h1.4a.161.161,0,0,0,.161-.161v-3.258a.161.161,0,0,0-.161-.161h-1.44a.16.16,0,0,0-.16.137l-.048.335-.035.119a.8.8,0,0,1-.092.145.36.36,0,0,1-.079.069l-.069.015h-.493c0-.286,0-2.833,0-2.9h.735a1.156,1.156,0,0,1,.261.048.681.681,0,0,1,.188.115.72.72,0,0,1,.141.184.557.557,0,0,1,.043.169v1.061a.161.161,0,0,0,.161.161H355.2a.161.161,0,0,0,.161-.161v-3.427a.161.161,0,0,0-.161-.161Zm.387.161v3.427h-1.623V1626.8a.692.692,0,0,0-.056-.224.848.848,0,0,0-.183-.241.825.825,0,0,0-.242-.146,1.259,1.259,0,0,0-.312-.055h-.9c0,.44,0,2.764,0,3.22h.668a.335.335,0,0,0,.253-.136.918.918,0,0,0,.12-.189.715.715,0,0,0,.047-.16l.048-.335h1.44v3.258h-1.4l-.065-.308a1.361,1.361,0,0,0-.069-.219.622.622,0,0,0-.093-.159.725.725,0,0,0-.172-.139.385.385,0,0,0-.124-.028l-.643,0c0,.851.01,3.432.01,3.432a.562.562,0,0,0,.037.165.7.7,0,0,0,.117.172.972.972,0,0,0,.218.134.694.694,0,0,0,.144.043l.334.048v1.224l-.884-.1c-.827-.091-.976-.107-1.192-.121-.6-.039-1.7-.145-1.749-.15l-.349-.034v-.836l0-.327.32-.054a.879.879,0,0,0,.2-.065.733.733,0,0,0,.181-.141.574.574,0,0,0,.083-.167,1.024,1.024,0,0,0,.033-.212c0-.224-.019-7.74-.019-7.74a.809.809,0,0,0-.038-.208.493.493,0,0,0-.1-.144.764.764,0,0,0-.186-.128.925.925,0,0,0-.195-.062l-.316-.06,0-1.167H355.2Z" transform="translate(-8.465 -0.054)" fill="#fff"/>
      <path id="Path_95" data-name="Path 95" d="M360.636,1624.764l-3.087.009a.16.16,0,0,0-.16.161v.454a.186.186,0,0,0,.092.146l.176.1a.976.976,0,0,1,.163.143.936.936,0,0,1,.134.216,1.034,1.034,0,0,1,.054.249c0-.012.008,8.636.008,8.636a1.281,1.281,0,0,1-.031.26.878.878,0,0,1-.113.266.913.913,0,0,1-.254.226.88.88,0,0,1-.268.084.162.162,0,0,0-.14.161v.474a.161.161,0,0,0,.127.157l1.9.414c.285.063,1.59.389,1.6.392a.162.162,0,0,0,.138-.029.16.16,0,0,0,.062-.127l0-.52a.16.16,0,0,0-.119-.154.971.971,0,0,1-.205-.09,1.435,1.435,0,0,1-.312-.253,1.094,1.094,0,0,1-.158-.292,1.121,1.121,0,0,1-.044-.3s0-9.04,0-9.219a1.886,1.886,0,0,1,.057-.3.766.766,0,0,1,.094-.2,1.258,1.258,0,0,1,.22-.2l.137-.081a.192.192,0,0,0,.094-.147v-.483a.16.16,0,0,0-.047-.114.158.158,0,0,0-.115-.047m-3.086.17,3.087-.009v.483a1.154,1.154,0,0,0-.165.1,1.324,1.324,0,0,0-.254.24.832.832,0,0,0-.119.246,1.975,1.975,0,0,0-.063.335l0,9.224a1.281,1.281,0,0,0,.052.346,1.2,1.2,0,0,0,.183.341,1.617,1.617,0,0,0,.357.295,1.1,1.1,0,0,0,.247.107l0,.519s-1.318-.33-1.608-.394l-1.9-.413v-.474a1.071,1.071,0,0,0,.325-.1,1.1,1.1,0,0,0,.307-.27,1.046,1.046,0,0,0,.14-.326,1.435,1.435,0,0,0,.036-.3l-.009-8.648a1.2,1.2,0,0,0-.065-.295.959.959,0,0,0-.354-.432,1.49,1.49,0,0,0-.2-.119Z" transform="translate(-10.164 -0.147)" fill="#fff"/>
      <path id="Path_96" data-name="Path 96" d="M360.931,1624.284l-3.86.01a.162.162,0,0,0-.161.162v1.059a.161.161,0,0,0,.08.139l.223.129.129.077.09.075a.588.588,0,0,1,.069.107.562.562,0,0,1,.027.131c0,.021.01,8.615.01,8.615a.855.855,0,0,1-.022.169.512.512,0,0,1-.05.13.5.5,0,0,1-.124.114.506.506,0,0,1-.136.042l-.333.047a.159.159,0,0,0-.139.157l0,.337v.787a.16.16,0,0,0,.127.156l2.2.48c.2.043.944.228,1.581.387l.493.123a.158.158,0,0,0,.138-.029.161.161,0,0,0,.062-.127l-.006-1.307a.16.16,0,0,0-.116-.154l-.283-.08-.111-.049a1.161,1.161,0,0,1-.21-.165.678.678,0,0,1-.09-.164.746.746,0,0,1-.027-.182s0-8.992,0-9.2a1.4,1.4,0,0,1,.041-.211l.036-.077a1.086,1.086,0,0,1,.131-.116l.279-.168a.158.158,0,0,0,.076-.114l.037-.238a.248.248,0,0,0,0-.025v-.87a.16.16,0,0,0-.161-.161m0,.161v.87l-.037.239-.287.172a1.017,1.017,0,0,0-.171.156.5.5,0,0,0-.06.126,1.558,1.558,0,0,0-.047.246c0,.421,0,9.207,0,9.207a.911.911,0,0,0,.034.229.839.839,0,0,0,.122.221,1.337,1.337,0,0,0,.249.2.763.763,0,0,0,.148.066l.283.081.006,1.305-.483-.12c-.013,0-1.315-.329-1.6-.392l-2.2-.479v-.786l0-.337.333-.047a.522.522,0,0,0,.371-.222.7.7,0,0,0,.075-.185,1.128,1.128,0,0,0,.025-.207s-.01-8.582-.01-8.626a.76.76,0,0,0-.038-.177.7.7,0,0,0-.1-.157.794.794,0,0,0-.119-.1l-.139-.082-.222-.129v-1.059l3.473-.01Z" transform="translate(-10.072 -0.054)" fill="#fff"/>
      <path id="Path_97" data-name="Path 97" d="M363.059,1624.766a.162.162,0,0,0-.161.155l-.016.452a.159.159,0,0,0,.11.158,1.6,1.6,0,0,1,.538.28.8.8,0,0,1,.143.263,1.336,1.336,0,0,1,.047.317v9.738a1.4,1.4,0,0,1-.047.3.511.511,0,0,1-.119.205.543.543,0,0,1-.212.123,1.3,1.3,0,0,1-.271.053.161.161,0,0,0-.15.161v.5a.162.162,0,0,0,.115.155c.013,0,1.359.409,2.284.723s2.849,1.046,2.868,1.054a.161.161,0,0,0,.216-.124l.8-4.748a.16.16,0,0,0-.036-.131.162.162,0,0,0-.123-.057l-.5,0a.159.159,0,0,0-.155.117l-.658,2.31-.062.156a1.206,1.206,0,0,1-.193.279,1.855,1.855,0,0,1-.3.214.494.494,0,0,1-.182.063,1.486,1.486,0,0,1-.41,0c-.021,0-.052-.015-.052-.015l-.565-.176h0l-.034-.018v-.01l-.007-10.99a.729.729,0,0,1,.265-.526,2,2,0,0,1,.455-.218.161.161,0,0,0,.106-.151v-.445a.161.161,0,0,0-.161-.161Zm0,.161h3.532v.445a2.364,2.364,0,0,0-.51.25,1.1,1.1,0,0,0-.228.293,1.019,1.019,0,0,0-.088.352l.006,10.982a.214.214,0,0,0,.025.118.366.366,0,0,0,.124.07l.555.173.079.022a2.074,2.074,0,0,0,.453,0,.729.729,0,0,0,.242-.08,1.716,1.716,0,0,0,.339-.243,1.37,1.37,0,0,0,.224-.321,1.092,1.092,0,0,0,.073-.184l.657-2.31h.505l-.8,4.749s-1.937-.74-2.875-1.056-2.289-.725-2.289-.725v-.5a1.483,1.483,0,0,0,.31-.061.705.705,0,0,0,.282-.168.673.673,0,0,0,.154-.268,1.58,1.58,0,0,0,.054-.342v-9.739a1.429,1.429,0,0,0-.054-.362.947.947,0,0,0-.174-.322,1.819,1.819,0,0,0-.61-.328Z" transform="translate(-11.257 -0.147)" fill="#fff"/>
      <path id="Path_98" data-name="Path 98" d="M376.921,1624.759a.16.16,0,0,0-.157.128s-1.519,7.327-1.533,7.392l-.347,0-.013-.034s-1.544-7.35-1.544-7.35a.162.162,0,0,0-.157-.128h-2.943a.164.164,0,0,0-.115.048.161.161,0,0,0-.045.115l.007.47a.16.16,0,0,0,.135.156,1.208,1.208,0,0,1,.27.086.922.922,0,0,1,.27.2.779.779,0,0,1,.149.283.849.849,0,0,1,.023.231c0,.01.006,11.758.006,11.758a.628.628,0,0,1-.035.206.729.729,0,0,1-.161.238.808.808,0,0,1-.237.145,2,2,0,0,1-.3.083.159.159,0,0,0-.132.157v.559a.164.164,0,0,0,.1.148l1.143.508,1.394.648a.163.163,0,0,0,.155-.011.161.161,0,0,0,.074-.135v-.491a.162.162,0,0,0-.1-.149,2.182,2.182,0,0,1-.267-.137,1.028,1.028,0,0,1-.243-.2,1.228,1.228,0,0,1-.173-.31,1.156,1.156,0,0,1-.053-.3s.009-8.73.01-9.575h.406l2.083,9.638c.016.075.052.364.16.367s.151-.292.167-.365l2.009-9.645.432,0c0,.878-.009,12.52-.009,12.52a1.5,1.5,0,0,1-.1.56l-.027.034a.911.911,0,0,1-.239.237,1.038,1.038,0,0,1-.316.108.161.161,0,0,0-.138.159v.492a.161.161,0,0,0,.161.161h3.823a.161.161,0,0,0,.115-.047.163.163,0,0,0,.046-.114l0-.509a.161.161,0,0,0-.144-.158,1.318,1.318,0,0,1-.237-.054.786.786,0,0,1-.254-.14,1.122,1.122,0,0,1-.189-.253.709.709,0,0,1-.06-.248l-.008-15.941a.905.905,0,0,1,.052-.248.755.755,0,0,1,.165-.248.878.878,0,0,1,.245-.161,1.61,1.61,0,0,1,.28-.092.162.162,0,0,0,.128-.158v-.467a.161.161,0,0,0-.161-.161Zm-6.695.165h2.943l1.546,7.354a.327.327,0,0,0,.05.116.147.147,0,0,0,.086.041l.426,0a.121.121,0,0,0,.067-.023.314.314,0,0,0,.038-.074l1.539-7.424h3.566v.467a1.816,1.816,0,0,0-.314.1,1.107,1.107,0,0,0-.292.195.931.931,0,0,0-.2.305,1.1,1.1,0,0,0-.061.306l.008,15.94a.852.852,0,0,0,.073.314,1.219,1.219,0,0,0,.224.3.963.963,0,0,0,.313.177,1.414,1.414,0,0,0,.273.062l0,.508h-3.823v-.492a.912.912,0,0,0,.685-.437,1.664,1.664,0,0,0,.136-.66l.009-12.568a.129.129,0,0,0-.033-.092.117.117,0,0,0-.082-.019l-.516,0a.138.138,0,0,0-.077.015.213.213,0,0,0-.036.081l-2.021,9.675-2.1-9.682s-.009-.057-.03-.074a.1.1,0,0,0-.067-.01h-.519a.112.112,0,0,0-.081.019c-.02.013-.018.07-.018.07l-.01,9.65a1.325,1.325,0,0,0,.062.348,1.374,1.374,0,0,0,.2.359,1.171,1.171,0,0,0,.285.238,2.229,2.229,0,0,0,.291.151v.491s-.748-.351-1.394-.647-1.147-.51-1.147-.51v-.559a2.032,2.032,0,0,0,.329-.091.954.954,0,0,0,.288-.177.885.885,0,0,0,.2-.3.78.78,0,0,0,.044-.262l-.006-11.749a1.007,1.007,0,0,0-.03-.282.945.945,0,0,0-.182-.349,1.117,1.117,0,0,0-.323-.237,1.334,1.334,0,0,0-.312-.1Z" transform="translate(-12.641 -0.146)" fill="#fff"/>
      <path id="Path_99" data-name="Path 99" d="M379.573,1642.652a.161.161,0,0,0-.143-.159l-.341-.039-.153-.035a.623.623,0,0,1-.117-.058.852.852,0,0,1-.1-.131.327.327,0,0,1-.025-.1l-.008-15.914a.6.6,0,0,1,.027-.127.406.406,0,0,1,.073-.107.6.6,0,0,1,.132-.084,1.191,1.191,0,0,1,.206-.068l.305-.067a.161.161,0,0,0,.126-.157v-1.165a.16.16,0,0,0-.161-.161h-4.267a.159.159,0,0,0-.157.128s-1.142,5.51-1.4,6.732c-.256-1.221-1.414-6.729-1.414-6.729a.159.159,0,0,0-.157-.127h-3.649a.16.16,0,0,0-.114.048.168.168,0,0,0-.047.115l.019,1.182a.159.159,0,0,0,.133.156l.317.056a.821.821,0,0,1,.172.053.628.628,0,0,1,.147.106.49.49,0,0,1,.062.125.479.479,0,0,1,.011.112v.015l0,7.6-.9,0a.161.161,0,0,0-.155.118s-.731,2.568-.735,2.583l-.04.1a.829.829,0,0,1-.119.176,1.2,1.2,0,0,1-.2.145l-.049.02h-.3l-.331-.1c0-.231-.007-10.7-.007-10.7a.537.537,0,0,1,.038-.14.642.642,0,0,1,.092-.108,2.305,2.305,0,0,1,.337-.149l.253-.093a.161.161,0,0,0,.106-.151v-1.1a.166.166,0,0,0-.047-.115.16.16,0,0,0-.114-.046h-4.29a.161.161,0,0,0-.161.154l-.04,1.119a.16.16,0,0,0,.109.152l.274.093a1.668,1.668,0,0,1,.372.172.386.386,0,0,1,.061.113.956.956,0,0,1,.031.212v9.725a.977.977,0,0,1-.031.2.131.131,0,0,1-.026.043l.007,0-.007,0h0l-.053.027a.919.919,0,0,1-.18.035l-.358.027a.162.162,0,0,0-.149.16v1.142a.161.161,0,0,0,.115.155l.275.083c.145.044,1.4.426,2.272.719s2.651.972,2.851,1.048l.308.117a.167.167,0,0,0,.036.022l1.372.61,1.939.9a.163.163,0,0,0,.154-.01.162.162,0,0,0,.074-.135l0-.6v-.75a.161.161,0,0,0-.1-.148l-.238-.1-.212-.109a.928.928,0,0,1-.144-.112.9.9,0,0,1-.108-.193.788.788,0,0,1-.034-.189s.007-5.737.008-7.838c.359,1.655,1.869,8.578,1.869,8.578a.507.507,0,0,0,.068.17c.041.048.149.04.149.04h.394a.222.222,0,0,0,.115-.054.42.42,0,0,0,.082-.149s1.47-7.02,1.807-8.637c0,2.258-.007,10.844-.007,10.844a1.72,1.72,0,0,1-.048.358.719.719,0,0,1-.128.14.653.653,0,0,1-.179.058l-.328.051a.16.16,0,0,0-.136.158l0,.331v.879a.161.161,0,0,0,.161.16h4.6a.162.162,0,0,0,.115-.047.164.164,0,0,0,.048-.114Zm-4.749,1.24v-.878l0-.332.328-.051a.8.8,0,0,0,.237-.078.788.788,0,0,0,.174-.181l.015-.02a1.635,1.635,0,0,0,.065-.436s.007-11.773.007-12.3h-.023l-2.088,9.99a.334.334,0,0,1-.043.093.118.118,0,0,1-.07.022l-.3,0a.1.1,0,0,1-.073-.022.207.207,0,0,1-.04-.089s-2.091-9.637-2.164-9.98c0,1.626-.01,9.337-.01,9.337a.911.911,0,0,0,.042.235.953.953,0,0,0,.137.246.939.939,0,0,0,.183.146,1.865,1.865,0,0,0,.233.12l.24.1v.749l0,.605-1.942-.9-1.139-.506-.394-.174-.186-.071c-.02-.008-1.941-.74-2.86-1.052s-2.263-.715-2.277-.719l-.274-.084v-1.142l.358-.026a1.1,1.1,0,0,0,.217-.043.344.344,0,0,0,.119-.063.3.3,0,0,0,.067-.114,1.255,1.255,0,0,0,.038-.244V1626.3a1.067,1.067,0,0,0-.038-.256.572.572,0,0,0-.1-.181,1.619,1.619,0,0,0-.439-.213l-.274-.091.04-1.112h4.29v1.1l-.253.093a2.263,2.263,0,0,0-.384.174.785.785,0,0,0-.136.167.669.669,0,0,0-.052.207c0,.032.006,10.545.006,10.823.153.047.351.115.383.124s.1.023.1.023a1.712,1.712,0,0,0,.337-.006.344.344,0,0,0,.1-.038,1.373,1.373,0,0,0,.243-.173,1.025,1.025,0,0,0,.151-.221l.046-.115.738-2.592.9,0h.163l0-.16,0-7.59v-.022a.606.606,0,0,0-.018-.161.567.567,0,0,0-.1-.19.733.733,0,0,0-.2-.145.94.94,0,0,0-.213-.067l-.316-.055-.019-1.182H372s1.5,7.143,1.573,7.483c.094-.458,1.552-7.488,1.552-7.488h4.267v1.164l-.3.067a1.43,1.43,0,0,0-.237.077.7.7,0,0,0-.179.117.551.551,0,0,0-.111.166.672.672,0,0,0-.037.182c0,.262.008,15.921.008,15.921a.487.487,0,0,0,.04.161.878.878,0,0,0,.14.184.725.725,0,0,0,.171.09,1.019,1.019,0,0,0,.189.043l.341.039.009,1.239Z" transform="translate(-11.162 -0.054)" fill="#fff"/>
      <path id="Path_100" data-name="Path 100" d="M319.223,1624.3l-3.341-.014a.163.163,0,0,0-.161.161v1.2a.16.16,0,0,0,.153.161l.374.02a.242.242,0,0,1,.146.066.706.706,0,0,1,.143.347c0,.019.032,10.831.032,10.831v.228a1.348,1.348,0,0,1-.392,1.021,1.12,1.12,0,0,1-.886.391,1.158,1.158,0,0,1-1.135-1.106c0-.265-.052-11.116-.052-11.225a.891.891,0,0,1,.1-.446.45.45,0,0,1,.26-.122l.345-.038a.159.159,0,0,0,.143-.159l0-1.17a.158.158,0,0,0-.047-.115.16.16,0,0,0-.114-.046h-4.385a.159.159,0,0,0-.161.161l0,1.163a.16.16,0,0,0,.154.16,2.739,2.739,0,0,1,.32.033.532.532,0,0,1,.28.158.477.477,0,0,1,.1.311l.045,11.432h-.128a.161.161,0,0,0-.161.14l-.263,2.085c-.034.24-.13.906-.161,1.066a1.905,1.905,0,0,1-.122.359l-.011.025a.993.993,0,0,1-.307.378,1.284,1.284,0,0,1-.653.274l-.791-.01c0-.3-.01-5.759-.01-5.759s-.04-9.74-.042-10.119a.427.427,0,0,1,.124-.218.7.7,0,0,1,.273-.111l.319-.057a.162.162,0,0,0,.132-.157l0-.324v-.819a.161.161,0,0,0-.161-.161h-4.56a.163.163,0,0,0-.161.161l0,1.1a.16.16,0,0,0,.118.154l.338.092a.54.54,0,0,1,.283.141.451.451,0,0,1,.1.238h0c0,.073.04,11.3.04,11.3l0,1.684-.01,2.748v.034a.745.745,0,0,1-.051.293.469.469,0,0,1-.282.208l-.329.047a.161.161,0,0,0-.138.154l-.012.335s0,.911,0,.911a.161.161,0,0,0,.161.161l7.41-.02a.161.161,0,0,0,.16-.146l.29-3.324.025.018.027.019a2.8,2.8,0,0,0,.819.421,3.765,3.765,0,0,0,1.1.171,4.006,4.006,0,0,0,1.151-.191,4.489,4.489,0,0,0,.9-.4,4,4,0,0,0,1.422-1.463l.024-.039a3.986,3.986,0,0,0,.441-1.238,6.088,6.088,0,0,0,.1-.854v-.017c0-.014-.024-10.559-.025-10.787a.472.472,0,0,1,.082-.232,1.218,1.218,0,0,1,.358-.173l.287-.076a.162.162,0,0,0,.119-.156l0-1.1a.162.162,0,0,0-.161-.161m0,1.264-.287.077a1.372,1.372,0,0,0-.414.2.579.579,0,0,0-.145.35c0,.041.025,10.794.025,10.794V1637a5.849,5.849,0,0,1-.1.828,3.865,3.865,0,0,1-.417,1.182l-.024.038a3.878,3.878,0,0,1-1.365,1.41,4.313,4.313,0,0,1-.866.388,3.807,3.807,0,0,1-1.1.185,3.552,3.552,0,0,1-1.05-.163,2.657,2.657,0,0,1-.778-.4l-.026-.019-.1-.074.023-.269c.082.068.155.122.207.158l.027.019a2.435,2.435,0,0,0,.719.371,3.4,3.4,0,0,0,.983.151,3.63,3.63,0,0,0,1.037-.175,4.177,4.177,0,0,0,.819-.37,3.679,3.679,0,0,0,1.286-1.337l.024-.038a3.67,3.67,0,0,0,.385-1.1,5.359,5.359,0,0,0,.1-.791l-.025-10.822a.806.806,0,0,1,.235-.509,1.6,1.6,0,0,1,.493-.239.163.163,0,0,0,.121-.157v-.421a.161.161,0,0,0-.161-.161l-2.568-.01a.164.164,0,0,0-.162.161v.442a.163.163,0,0,0,.158.161.635.635,0,0,1,.422.2,1.109,1.109,0,0,1,.236.579c0,.1.036,10.553.031,11.083a1.733,1.733,0,0,1-.5,1.283,1.516,1.516,0,0,1-1.171.471,1.779,1.779,0,0,1-1.087-.458,1.659,1.659,0,0,1-.43-.99l-.052-11.225a1.267,1.267,0,0,1,.178-.681.835.835,0,0,1,.528-.272.163.163,0,0,0,.146-.161v-.436a.161.161,0,0,0-.161-.161H310.8a.161.161,0,0,0-.161.161v.415a.162.162,0,0,0,.146.161.936.936,0,0,1,.5.237.981.981,0,0,1,.21.706v.016l.052,11.213c0,.006,0,.052,0,.125v.161h.164l.924,0-.166,1.9-.018.207-.024.279-.017.194-.3,3.424-7.41.02,0-.907.012-.335.33-.046a.627.627,0,0,0,.391-.277.855.855,0,0,0,.079-.384v-.033l.01-2.75,0-1.684s-.039-11.26-.039-11.308a.622.622,0,0,0-.14-.335.676.676,0,0,0-.361-.189l-.337-.092,0-1.1h4.56v.818l0,.324-.319.057a.831.831,0,0,0-.355.153.606.606,0,0,0-.174.318c0,.065.043,10.136.043,10.136s.008,5.374.009,5.918l.961.01a1.407,1.407,0,0,0,.745-.31,1.147,1.147,0,0,0,.354-.439l.01-.024a2.036,2.036,0,0,0,.132-.392c.032-.166.13-.838.164-1.078l.264-2.083h.286l0-.161c0-.437-.046-11.41-.046-11.433a.622.622,0,0,0-.152-.43.689.689,0,0,0-.359-.2,2.97,2.97,0,0,0-.342-.036l0-1.163h4.385l0,1.17-.345.037a.6.6,0,0,0-.371.184,1.043,1.043,0,0,0-.132.544s.05,10.957.052,11.225a1.316,1.316,0,0,0,1.29,1.266,1.28,1.28,0,0,0,1.009-.442,1.507,1.507,0,0,0,.435-1.13c0-.036,0-.114,0-.23,0-1.609-.031-10.459-.032-10.841a.859.859,0,0,0-.181-.442.408.408,0,0,0-.26-.123l-.374-.02v-1.2l3.341.014Zm-6.479,12.193a.161.161,0,0,0-.119-.052l-.926,0c0-.078,0-.126,0-.126l-.052-11.213a1.135,1.135,0,0,0-.26-.839,1.085,1.085,0,0,0-.592-.28v-.415h3.612v.436a1,1,0,0,0-.641.337,1.419,1.419,0,0,0-.211.778s.051,10.933.052,11.225a1.811,1.811,0,0,0,.484,1.11,1.92,1.92,0,0,0,1.193.5,1.67,1.67,0,0,0,1.288-.521,1.9,1.9,0,0,0,.542-1.394c0-.537-.031-11.094-.031-11.094a1.261,1.261,0,0,0-.274-.672.791.791,0,0,0-.542-.258v-.442l2.568.011v.421a1.736,1.736,0,0,0-.55.267.961.961,0,0,0-.3.637l.025,10.815a5.313,5.313,0,0,1-.094.766,3.494,3.494,0,0,1-.362,1.046,3.568,3.568,0,0,1-1.254,1.322,3.957,3.957,0,0,1-.785.356,3.452,3.452,0,0,1-.989.169,3.2,3.2,0,0,1-.936-.142,2.318,2.318,0,0,1-.7-.369,3.156,3.156,0,0,1-.283-.224l.177-2.03a.16.16,0,0,0-.041-.123" transform="translate(0 -0.054)" fill="#fff"/>
      <path id="Path_101" data-name="Path 101" d="M305.388,1626.99l-.832-.825a.219.219,0,0,1-.063-.1.906.906,0,0,1-.019-.256l.111.128.592.161.189.212Z" transform="translate(-0.001 -0.347)" fill="#fff"/>
      <path id="Path_102" data-name="Path 102" d="M310.023,1624.345a.18.18,0,0,1,.123-.045.352.352,0,0,1,.214.1c.073.063.772.752.772.752l.1,0,.078.55.4.03.335.182.092.693-.006,1.369a.405.405,0,0,0-.367-.041.481.481,0,0,0-.291.386v12.353l-.107.68-.329.43-.55.295-.234.028-.841-.019-.006-1.756-.048-14.244.149-.228.421-.139.279-.073v-1.262Z" transform="translate(-0.942 -0.057)" fill="#fff"/>
      <path id="Path_103" data-name="Path 103" d="M330.019,1624.4s.075-.1.14-.1c.1,0,.136.072.282.213s.8.784.8.784h.111l.021.307.112.086.594.206.094.272-.769,4.919-.979,0a.167.167,0,0,1-.107-.048l-1.936-1.913.009,2.75-.023,3.4-.237.532-.7.268-.7-.318-.17-.553.014-8.573.3-.523.532-.192.608.278.336.769.009,1.945.072.077,1.77-.023.027-4.539Z" transform="translate(-4.258 -0.057)" fill="#fff"/>
      <path id="Path_104" data-name="Path 104" d="M335.181,1628.354c0-.02.015-.03.03-.03a.039.039,0,0,1,.034.03c0,.017.564,3.3.575,3.358a.125.125,0,0,1-.112.157c-.092,0-.844,0-.922,0a.13.13,0,0,1-.126-.158c.019-.142.518-3.336.521-3.355" transform="translate(-5.818 -0.833)" fill="#fff"/>
      <path id="Path_105" data-name="Path 105" d="M339.157,1624.379a.172.172,0,0,1,.15-.1c.1,0,.194.114.283.2s.871.868.871.868h.1l-.128.467-.054.582.01,2.2.2.859.4.537,1.208.858,1.207.778.17.225.009,1.555-.287.457-.483.143-.555-.25-.223-.519-.019-1.708-.152-.1-.043-.023s-.8-1.07-.832-1.114-.094-.037-.081.034.222,1.163.222,1.163l-.708-.023-.044.064.007,1.781-.01,1.308-.325-.117-.319-.323-.191-1.267-.316-2.094-.366-2.217-.405-2.619.094-.161.275-.088.509.041.061-.114-.02-1.295Z" transform="translate(-6.55 -0.054)" fill="#fff"/>
      <path id="Path_106" data-name="Path 106" d="M347.3,1624.29c.122,0,.155.066.2.118l.028.028h.065l.023.057.015,1.11.094.081.671.228.081.113.011,4.278-.894-.009s-1.716-1.71-1.762-1.749-.108-.091-.111.023,0,.754,0,.754l-1.337-.879-.268-.3v-1.663l.25-.3.34-.116.447.071.412.438.134.653-.009.966.044.063,1.565.027.117-.053-.045-3.81-.153-.02Z" transform="translate(-7.641 -0.055)" fill="#fff"/>
      <path id="Path_107" data-name="Path 107" d="M370.615,1638.46c.013-.126.094-.308.114-.013s.025,2.03.019,2.156a.547.547,0,0,1-.151.353.449.449,0,0,1-.3.132c-.063,0-.139-.044-.069-.435s.384-2.193.384-2.193" transform="translate(-12.668 -2.753)" fill="#fff"/>
      <path id="Path_108" data-name="Path 108" d="M367.569,1624.4s.1-.111.195-.109c.127,0,.194.107.3.216s.97.948.97.948h.128l.01.173.067.1.6.157.191.22-.006,1.808s-.577,0-.7,0a.416.416,0,0,0-.358.389c0,.184.009,5.664.009,5.664l-.7,2.5-.262.47-.362.148-.442-.074-.175-.086.007-10.846.187-.221.63-.255-.013-1.2Z" transform="translate(-12.057 -0.055)" fill="#fff"/>
      <path id="Path_109" data-name="Path 109" d="M316.984,1624.379s0-.1.092-.1.177.1.269.194l.568.557h.129l.034.635.12.061.463.053.235.329v1.878a.467.467,0,0,0-.317-.014.423.423,0,0,0-.257.376v10.161l-.412.248-.657.006-.5-.254-.382-.658-.061-11.832.221-.268.61-.067v-1.275Z" transform="translate(-2.283 -0.054)" fill="#fff"/>
      <path id="Path_110" data-name="Path 110" d="M374.052,1624.391a.307.307,0,0,1,.2-.1c.107,0,.167.1.283.218s2.159,2.144,2.159,2.144h.138l-.518,2.544-.456,2.2-.049,0-.555-2.62-.594-2.751-.358-1.631Z" transform="translate(-13.41 -0.055)" fill="#fff"/>
      <path id="Path_111" data-name="Path 111" d="M362.436,1643.391a49.271,49.271,0,0,0-10.676-4.578,51.206,51.206,0,0,0-14.158-2.079,47.509,47.509,0,0,0-13.167,1.748,51.439,51.439,0,0,0-11.344,4.733.075.075,0,0,0-.027.1.075.075,0,0,0,.1.028,51.244,51.244,0,0,1,11.307-4.717,47.358,47.358,0,0,1,13.128-1.743,51.1,51.1,0,0,1,14.117,2.073,49.033,49.033,0,0,1,10.638,4.562.075.075,0,1,0,.078-.128m7.254-15.44a1.576,1.576,0,0,1,.568-.1.135.135,0,0,0,.13-.116s0-1.108,0-1.234-.031-.143-.067-.178-1.757-1.789-1.844-1.884-.111-.152-.253-.156a.2.2,0,0,0-.149.085l.246.049-.007,1.214-.651.181-.168.195-.04,16.118.073.218.319.135.493.09.019,1.314-.037.056-4.644.01-.069-.04-.056-.21-.149,0-.628-.64v-1.072a.926.926,0,0,0-.02-.2.305.305,0,0,0-.084-.109l-.61-.632a1.931,1.931,0,0,1-.165-.2.418.418,0,0,1-.023-.157s.006-.531.006-.6.067-.061.094-.04,1.489,1.422,1.489,1.422l.953.02.025-10.534-.149-.023-1.823,8.746-.107.141-.472-.011-.1-.127-1.883-8.751-.134.033-.017,7.84.074.484.3.254.463.171,0,1.463-.036.083s-2.862-1.331-4.536-1.975-4.663-1.563-4.663-1.563l0-1.275.63-.047.165-.158.01-10.117-.151-.221-.718-.3.013-1.038-.134,0a1.376,1.376,0,0,0-.094-.121c-.056-.065-.092-.136-.2-.141-.053,0-.1.062-.1.062l.163.016-.027,1.2-.4.215-.161.288-.033,9.464.153.308.457.242.247.08.034,1.388-.12.053-1.523-.362-2.824-.644-.007-.154-1.717-1.717v-1.965c0-.1.068-.12.128-.053.08.087,1.033,1.006,1.033,1.006l1.113-.007.262.1-.006-7.478-.168-.544-.57-.308.006,2.407-1.777.014v-1.174l-.256-.429-.341-.094-.939-.04v3.078h.7l.207-.3.068-.428.073-.074h1.456l.086.053-.019,3.26-.061.081-1.335.034-.147-.053-.107-.323-.161-.422-.175-.073h-.57l.006,3.521.282.229.423.061.14.053.033,1.255-.134.1-4.191-.416-.034-.08.027-1.161.014-.067.5-.081.2-.254.081-.242-.045-2.275s-1.514-1.512-1.59-1.6a.161.161,0,0,0-.167-.051l.463.615.25.776.013,2.211-.249.922-.53.682-.87.544-.851.147-.656-.053-1.124-.357.036.294-.1.063-1.556.014-.094.013-3.772.451-.072-.031-.018-1.257.272-.089.272-.174,0-.182-.312-1.913-1.485-.009-.4,2.429.081.085.548-.014.072.059,0,1.172-.071.089-.977.214-1.845.371-.156,0-.023-.2.018-.856.085-.21.352-.338.131-.328.157-.782.23-1.727s-.6-.572-.744-.723-.178-.148-.224-.148-.043.084-.043.084l.128.045v1.764l-.046,1.409-.028.652-.1.353-.446.788-.633.623-1.378.632-1.244.042-.85-.177-.819-.425-.26-.308-.44-.628-.186-.6-.065-9.567.154-.582.149-.333.288-.441s-.61-.615-.677-.684a.242.242,0,0,0-.2-.081.09.09,0,0,0-.09.061l.152.045v1.18l-.215.1-.474.206-.151.185v11.32l-.22.927-.2.556-.371.591-.354.455-.522.455-.557.354-.945.287-.962.1-1-.169-.394-.2s.185-2.427.188-2.518-.023-.117-.038-.133-.226-.227-.266-.27-.112-.131-.2-.131a.076.076,0,0,0-.082.076l.16.087-.483,5.969-.107.107-7.415.036-.086-.143s-.079-.007-.079.064a.241.241,0,0,0,.094.177l1.945,1.932h7.488c.04,0,.061-.047.072-.12s.061-.543.067-.617a.234.234,0,0,1,.114-.181c.067-.04,1.295-.685,1.375-.731a.256.256,0,0,1,.242,0c.04.034.911.926,1.106,1.107a1.271,1.271,0,0,0,.92.55.87.87,0,0,0,.584-.228.759.759,0,0,0,.181-.409l11.041-.007a2.524,2.524,0,0,0,1.851.692,2.629,2.629,0,0,0,1.784-.671l.63.57,3.615-.014a.317.317,0,0,0,.081-.134,3.4,3.4,0,0,0,.047-.416,1.929,1.929,0,0,0,.624.442,2.441,2.441,0,0,0,.865.141,1.4,1.4,0,0,0,.818-.187.466.466,0,0,0,.208-.423l.63.591s3.837.014,3.938.007a.107.107,0,0,0,.107-.094l.019-.5a2.406,2.406,0,0,0,.725.449,3.68,3.68,0,0,0,1.141.222,3.065,3.065,0,0,0,1.12-.269,1.817,1.817,0,0,0,.571-.409l11.261-.014a1.572,1.572,0,0,0,.389.423.976.976,0,0,0,.49.154.673.673,0,0,0,.422-.154,1.017,1.017,0,0,0,.282-.389s2.166.01,2.408,0c.342-.014.5-.107.53-.369.007-.068.114-.027.087-.053s1.006.972,1.006.972l4.824-.013c.073,0,.12-.094.12-.168s-.007-1.107-.014-1.267a.313.313,0,0,0-.12-.255c-.048-.047-.369-.382-.563-.584a.826.826,0,0,1-.22-.445v-14.893a.418.418,0,0,1,.24-.357m-49.377,10.624c.091-.395.172-.871.172-.871l1.175,1.2-1.59.557s.152-.486.243-.882m9.481,5.58a2.242,2.242,0,0,1-1.774-.872l-11.853-.009a.237.237,0,0,0-.228.232.248.248,0,0,0,.241.24.264.264,0,0,0,.174-.09c.048-.046.207-.144.316-.049.089.093.053.221-.045.33a.694.694,0,0,1-.445.192.617.617,0,0,1-.628-.625.637.637,0,0,1,.534-.62l12.213.014a1.815,1.815,0,1,0,.027-2.064l-3.856.014a.631.631,0,0,1-.612-.629.621.621,0,0,1,.607-.62.592.592,0,0,1,.5.236c.057.091.079.238-.008.307a.2.2,0,0,1-.278-.034.3.3,0,0,0-.2-.127.242.242,0,0,0-.25.24.25.25,0,0,0,.236.239l3.587-.014a2.262,2.262,0,1,1,1.743,3.709m-.415-2.481a.454.454,0,1,1,.007.386l-10.719-.014a.193.193,0,0,1,0-.386Zm6.341,2.244a.053.053,0,0,1-.052.048l-2.98,0a.053.053,0,0,1-.053-.052l-.012-.357a.061.061,0,0,1,.031-.049l.163-.089a.654.654,0,0,0,.137-.123.574.574,0,0,0,.087-.17.918.918,0,0,0,.032-.188s-.015-3.588-.015-3.651l-.026-.254a.959.959,0,0,0-.076-.24.4.4,0,0,0-.129-.132l-.176-.085a.064.064,0,0,1-.035-.051l0-.38a.053.053,0,0,1,.049-.052l1.961-.161a.055.055,0,0,1,.059.053l.006.414a.053.053,0,0,1-.037.05.488.488,0,0,0-.223.125l-.019.023a.456.456,0,0,0-.075.123.558.558,0,0,0-.022.156v.006l0,.007v.009c0,.029,0,.245,0,.563,0,1.1.012,3.43.013,3.451l0,.018a1.048,1.048,0,0,0,.061.3.211.211,0,0,0,.157.135.532.532,0,0,0,.33-.19,1.34,1.34,0,0,0,.205-.4,3.951,3.951,0,0,0,.129-.44l.089-.481a.055.055,0,0,1,.054-.046l.525.013a.051.051,0,0,1,.039.019.052.052,0,0,1,.014.041Zm2.635-.129a.534.534,0,0,1-.2.121l-.223.065-.053.012-.188.023h-.572a1.169,1.169,0,0,1-.3-.065.9.9,0,0,1-.534-.539,1.381,1.381,0,0,1-.069-.368v-2.613a.167.167,0,0,0-.021-.1.162.162,0,0,0-.111-.026h-.522a.056.056,0,0,1-.038-.016.054.054,0,0,1-.016-.038l0-.544a.054.054,0,0,1,.054-.053h.546a.158.158,0,0,0,.087-.014.123.123,0,0,0,.017-.077v-.7a.055.055,0,0,1,.04-.052l1.121-.294a.049.049,0,0,1,.046.01.054.054,0,0,1,.022.043v.981a.122.122,0,0,0,.023.08.242.242,0,0,0,.127.012h.689a.059.059,0,0,1,.053.058v.024l-.015.254a1.43,1.43,0,0,1-.066.3.055.055,0,0,1-.052.035h-.6c-.009,0-.017.006-.026,0l-.013,0a.194.194,0,0,0-.091.022c-.022.017-.023.059-.022.075v.062c0,1.392,0,2.224,0,2.342a.627.627,0,0,0,.132.4.564.564,0,0,0,.351.109,1.393,1.393,0,0,0,.253-.024l.157-.053a.062.062,0,0,1,.051,0,.056.056,0,0,1,.026.043l0,.371c0,.023-.013.064-.077.124m4.176.131a.053.053,0,0,1-.054.053h-1.427a.308.308,0,0,1-.192-.073.712.712,0,0,1-.144-.2h-.051a1.991,1.991,0,0,1-.323.215,1.485,1.485,0,0,1-.366.094h-.4a1.087,1.087,0,0,1-.656-.312.866.866,0,0,1-.233-.525l0-2.488a1.231,1.231,0,0,1,.352-.851,1.724,1.724,0,0,1,.892-.294,1.574,1.574,0,0,1,.428.071,1.5,1.5,0,0,1,.244.11l.075.035a.073.073,0,0,0,.06-.026.191.191,0,0,0,.023-.089v-.619s0,0-.006,0l0-.015V1639a.527.527,0,0,0-.04-.178.831.831,0,0,0-.162-.215.693.693,0,0,0-.207-.14.6.6,0,0,0-.173-.035.056.056,0,0,1-.05-.054v-.41a.052.052,0,0,1,.016-.038.054.054,0,0,1,.038-.016l.654,0a8.472,8.472,0,0,1,1.1.111.055.055,0,0,1,.045.053c0,.048,0,4.777.009,4.924a.559.559,0,0,0,.15.37.631.631,0,0,0,.343.1.054.054,0,0,1,.052.053Zm16.319.209a.691.691,0,0,1-.444-.192c-.1-.108-.134-.237-.045-.33.109-.095.266,0,.316.049a.263.263,0,0,0,.174.09.247.247,0,0,0,.241-.24.238.238,0,0,0-.228-.232l-11.853.01a2.267,2.267,0,1,1-.031-2.837l3.8.014a.249.249,0,0,0,.235-.239.241.241,0,0,0-.249-.24.3.3,0,0,0-.2.127.2.2,0,0,1-.277.034c-.088-.069-.066-.216-.009-.307a.592.592,0,0,1,.5-.236.62.62,0,0,1,.607.62.631.631,0,0,1-.612.629l-4.072-.014a1.816,1.816,0,1,0,.027,2.064l12.214-.014a.637.637,0,0,1,.534.62.618.618,0,0,1-.629.625m-2.482-2.469a.193.193,0,1,1,0,.386l-10.731.014a.452.452,0,1,1,.008-.386Zm6.29,1.955a.308.308,0,0,1-.421.1,48.558,48.558,0,0,0-10.581-4.538,50.892,50.892,0,0,0-14.053-2.063,47.129,47.129,0,0,0-13.067,1.734,51.118,51.118,0,0,0-11.25,4.694.5.5,0,0,1-.233.033.3.3,0,0,1-.188-.142.309.309,0,0,1,.111-.421,51.726,51.726,0,0,1,11.4-4.755A47.708,47.708,0,0,1,337.6,1636.5a51.451,51.451,0,0,1,14.223,2.089,49.3,49.3,0,0,1,10.732,4.6.308.308,0,0,1,.1.422M340.3,1640.2a.438.438,0,0,0-.438.444c0,.061.008,1.979.006,2.1a.44.44,0,0,0,.464.415.457.457,0,0,0,.444-.412c0-.113,0-2.083,0-2.135a.445.445,0,0,0-.476-.409" transform="translate(-0.015 -0.054)" fill="#fff"/>
    </g>
  </g>
</svg>
