<svg xmlns="http://www.w3.org/2000/svg" width="42.618" height="42.618" viewBox="0 0 42.618 42.618">
  <g id="Group_68" data-name="Group 68" transform="translate(-98.005 -28.004)">
    <path id="Path_36" data-name="Path 36" d="M139.609,70.622H99.018A1.014,1.014,0,0,1,98,69.608V29.032A1.013,1.013,0,0,1,99.018,28h40.591a1.013,1.013,0,0,1,1.013,1.028V69.608a1.014,1.014,0,0,1-1.013,1.013Zm-39.573-2.027h38.555V30.045H100.036Zm31.452-8.116H107.139a1.013,1.013,0,0,1,0-2.027h24.349a1.013,1.013,0,1,1,0,2.027Zm0-10.143H107.139a1.013,1.013,0,0,1,0-2.027h24.349a1.013,1.013,0,1,1,0,2.027Zm0-10.143H107.139a1.013,1.013,0,0,1,0-2.027h24.349a1.013,1.013,0,1,1,0,2.027Z" transform="translate(0 0)" fill="#2062d6"/>
    <path id="Path_37" data-name="Path 37" d="M139.609,70.622H99.018A1.014,1.014,0,0,1,98,69.608V29.032A1.013,1.013,0,0,1,99.018,28h40.591a1.013,1.013,0,0,1,1.013,1.028V69.608a1.014,1.014,0,0,1-1.013,1.013Zm-39.573-2.027h38.555V30.045H100.036Zm31.452-8.116H107.139a1.013,1.013,0,0,1,0-2.027h24.349a1.013,1.013,0,1,1,0,2.027Zm0-10.143H107.139a1.013,1.013,0,0,1,0-2.027h24.349a1.013,1.013,0,1,1,0,2.027Zm0-10.143H107.139a1.013,1.013,0,0,1,0-2.027h24.349a1.013,1.013,0,1,1,0,2.027Z" transform="translate(0 0)" fill="#2062d6"/>
  </g>
</svg>
