<svg xmlns="http://www.w3.org/2000/svg" width="42.618" height="42.618" viewBox="0 0 42.618 42.618">
  <g id="Group_85" data-name="Group 85" transform="translate(-98.005 -28.004)">
    <path id="Path_38" data-name="Path 38" d="M257.387,183.621l-16.878-17.551a1.013,1.013,0,1,1,1.461-1.4l16.877,17.551a1.013,1.013,0,0,1-1.461,1.4Zm-15.417,0a1.013,1.013,0,0,1-1.461-1.4l16.877-17.551a1.013,1.013,0,1,1,1.461,1.4L241.97,183.621Z" transform="translate(-130.196 -124.821)" fill="#fff"/>
    <path id="Path_39" data-name="Path 39" d="M139.609,70.622H99.018A1.014,1.014,0,0,1,98,69.608V29.032A1.013,1.013,0,0,1,99.018,28h40.591a1.013,1.013,0,0,1,1.013,1.028V69.608a1.014,1.014,0,0,1-1.013,1.013Zm-39.573-2.027h38.555V30.045H100.036Z" fill="#fff"/>
  </g>
</svg>
